<svg width="20" height="17" viewBox="0 0 20 17" fill="none" xmlns="http://www.w3.org/2000/svg">
<path d="M0.193115 7.10112C0.193115 5.95784 1.14979 5.0472 2.29168 5.10355L17.9241 5.87489C18.6349 5.90996 19.1931 6.49642 19.1931 7.20801V7.20801C19.1931 7.90276 18.6602 8.48133 17.9678 8.53827L2.35703 9.82205C1.19175 9.91788 0.193115 8.99799 0.193115 7.82877V7.10112Z" fill="#20A1FF"/>
<path d="M1.34564 7.79465C0.654427 6.85515 0.912718 5.52565 1.90543 4.91329L7.80761 1.27249C8.35729 0.933413 9.07518 1.07288 9.45792 1.59311V1.59311C9.82553 2.09277 9.7675 2.78717 9.32204 3.21888L4.3422 8.04509C3.47377 8.88673 2.06232 8.76877 1.34564 7.79465V7.79465Z" fill="#20A1FF"/>
<path d="M1.51996 7.14412C2.29527 6.27638 3.65443 6.2404 4.4616 7.07858L9.89818 12.724C10.3445 13.1874 10.3581 13.9165 9.92942 14.3962V14.3962C9.51632 14.8586 8.82362 14.9411 8.3135 14.5887L1.86449 10.1335C0.874522 9.44958 0.718283 8.04138 1.51996 7.14412V7.14412Z" fill="#20A1FF"/>
</svg>
