<svg width="22" height="22" viewBox="0 0 22 22" fill="none" xmlns="http://www.w3.org/2000/svg">
<g clip-path="url(#clip0_22_32)">
<path d="M19.7084 3.66667H17.7223V4.88889H19.5557V18.3333H2.44455V4.88889H4.27788V3.66667H2.29177C2.14891 3.66906 2.00793 3.69956 1.87687 3.75644C1.7458 3.81333 1.62723 3.89547 1.52792 3.99819C1.42861 4.10091 1.3505 4.22218 1.29807 4.35509C1.24564 4.48799 1.2199 4.62992 1.22233 4.77278V18.4494C1.2199 18.5923 1.24564 18.7342 1.29807 18.8671C1.3505 19 1.42861 19.1213 1.52792 19.224C1.62723 19.3268 1.7458 19.4089 1.87687 19.4658C2.00793 19.5227 2.14891 19.5532 2.29177 19.5556H19.7084C19.8513 19.5532 19.9923 19.5227 20.1233 19.4658C20.2544 19.4089 20.373 19.3268 20.4723 19.224C20.5716 19.1213 20.6497 19 20.7021 18.8671C20.7546 18.7342 20.7803 18.5923 20.7779 18.4494V4.77278C20.7803 4.62992 20.7546 4.48799 20.7021 4.35509C20.6497 4.22218 20.5716 4.10091 20.4723 3.99819C20.373 3.89547 20.2544 3.81333 20.1233 3.75644C19.9923 3.69956 19.8513 3.66906 19.7084 3.66667Z" fill="#162353"/>
<path d="M4.88892 8.55556H6.11114V9.77778H4.88892V8.55556Z" fill="#162353"/>
<path d="M8.55566 8.55556H9.77789V9.77778H8.55566V8.55556Z" fill="#162353"/>
<path d="M12.2222 8.55556H13.4444V9.77778H12.2222V8.55556Z" fill="#162353"/>
<path d="M15.8889 8.55556H17.1111V9.77778H15.8889V8.55556Z" fill="#162353"/>
<path d="M4.88892 11.6111H6.11114V12.8333H4.88892V11.6111Z" fill="#162353"/>
<path d="M8.55566 11.6111H9.77789V12.8333H8.55566V11.6111Z" fill="#162353"/>
<path d="M12.2222 11.6111H13.4444V12.8333H12.2222V11.6111Z" fill="#162353"/>
<path d="M15.8889 11.6111H17.1111V12.8333H15.8889V11.6111Z" fill="#162353"/>
<path d="M4.88892 14.6667H6.11114V15.8889H4.88892V14.6667Z" fill="#162353"/>
<path d="M8.55566 14.6667H9.77789V15.8889H8.55566V14.6667Z" fill="#162353"/>
<path d="M12.2222 14.6667H13.4444V15.8889H12.2222V14.6667Z" fill="#162353"/>
<path d="M15.8889 14.6667H17.1111V15.8889H15.8889V14.6667Z" fill="#162353"/>
<path d="M6.11111 6.11111C6.27319 6.11111 6.42863 6.04673 6.54323 5.93212C6.65784 5.81751 6.72222 5.66208 6.72222 5.5V1.83333C6.72222 1.67126 6.65784 1.51582 6.54323 1.40121C6.42863 1.28661 6.27319 1.22222 6.11111 1.22222C5.94903 1.22222 5.7936 1.28661 5.67899 1.40121C5.56438 1.51582 5.5 1.67126 5.5 1.83333V5.5C5.5 5.66208 5.56438 5.81751 5.67899 5.93212C5.7936 6.04673 5.94903 6.11111 6.11111 6.11111Z" fill="#162353"/>
<path d="M15.8889 6.11111C16.051 6.11111 16.2065 6.04673 16.3211 5.93212C16.4357 5.81751 16.5001 5.66208 16.5001 5.5V1.83333C16.5001 1.67126 16.4357 1.51582 16.3211 1.40121C16.2065 1.28661 16.051 1.22222 15.8889 1.22222C15.7269 1.22222 15.5714 1.28661 15.4568 1.40121C15.3422 1.51582 15.2778 1.67126 15.2778 1.83333V5.5C15.2778 5.66208 15.3422 5.81751 15.4568 5.93212C15.5714 6.04673 15.7269 6.11111 15.8889 6.11111Z" fill="#162353"/>
<path d="M7.94434 3.66667H14.0554V4.88889H7.94434V3.66667Z" fill="#162353"/>
</g>
<defs>
<clipPath id="clip0_22_32">
<rect width="22" height="22" fill="white"/>
</clipPath>
</defs>
</svg>
