<svg width="22" height="22" viewBox="0 0 22 22" fill="none" xmlns="http://www.w3.org/2000/svg">
<path fill-rule="evenodd" clip-rule="evenodd" d="M11.4016 2.5465C11.2691 2.50424 11.1255 2.51408 11.0001 2.574C10.9379 2.60278 10.8827 2.64474 10.8384 2.69698C10.7941 2.74922 10.7617 2.81047 10.7434 2.8765L10.3071 4.55767C10.1546 5.14521 9.9331 5.71262 9.64707 6.248C9.20249 7.07942 8.53057 7.71833 7.90724 8.2555L6.58907 9.39217C6.48824 9.47915 6.40948 9.58881 6.35929 9.71216C6.30909 9.8355 6.28888 9.96899 6.30032 10.1017L7.04465 18.7119C7.06276 18.921 7.15853 19.1158 7.3131 19.2578C7.46767 19.3998 7.66983 19.4788 7.87974 19.4792H12.1413C15.016 19.4792 17.4387 17.479 17.9035 14.7922L18.5497 11.0522C18.5707 10.9317 18.5651 10.8081 18.5333 10.6899C18.5014 10.5718 18.4442 10.4621 18.3655 10.3684C18.2869 10.2747 18.1887 10.1993 18.0778 10.1476C17.967 10.0958 17.8462 10.0689 17.7238 10.0687H12.9746C12.079 10.0687 11.3979 9.26567 11.5427 8.382L12.1505 4.675C12.2337 4.16725 12.21 3.64771 12.0808 3.14967C12.0444 3.01782 11.9752 2.89733 11.8796 2.79941C11.7841 2.70149 11.6654 2.62931 11.5345 2.58958L11.4016 2.5465ZM10.4024 1.33558C10.8457 1.12232 11.3539 1.08722 11.8223 1.2375L11.9552 1.28058C12.6675 1.50975 13.223 2.07808 13.4118 2.80408C13.5887 3.48792 13.6217 4.20108 13.5072 4.89775L12.8994 8.60475C12.8975 8.61568 12.8981 8.62689 12.901 8.63759C12.9039 8.6483 12.9091 8.65823 12.9163 8.6667C12.9235 8.67517 12.9324 8.68198 12.9424 8.68663C12.9525 8.69129 12.9635 8.69369 12.9746 8.69367H17.7229C19.0979 8.69367 20.1392 9.933 19.9046 11.2869L19.2583 15.0269C18.6735 18.4076 15.6485 20.8542 12.1413 20.8542H7.87974C7.3257 20.8537 6.79196 20.6456 6.38384 20.2709C5.97571 19.8962 5.72285 19.3821 5.67515 18.8302L4.9299 10.2199C4.89961 9.87024 4.95278 9.51837 5.08506 9.19326C5.21733 8.86816 5.42492 8.57911 5.69074 8.34992L7.01074 7.21325C7.61116 6.69625 8.11624 6.19483 8.4334 5.59992C8.6689 5.16056 8.85108 4.69465 8.97607 4.21208L9.41241 2.53183C9.48064 2.2725 9.60455 2.03115 9.77552 1.82456C9.94649 1.61798 10.1604 1.45111 10.4024 1.33558ZM2.72074 8.69458C2.89789 8.68684 3.07119 8.74784 3.20443 8.86485C3.33767 8.98186 3.42054 9.14583 3.43574 9.3225L4.3249 19.6222C4.33997 19.7755 4.32361 19.9304 4.27682 20.0772C4.23003 20.2241 4.1538 20.3598 4.05279 20.4762C3.95177 20.5926 3.82809 20.6872 3.68929 20.7542C3.5505 20.8212 3.3995 20.8592 3.24553 20.8658C3.09156 20.8725 2.93784 20.8477 2.79377 20.793C2.6497 20.7383 2.5183 20.6548 2.40759 20.5475C2.29687 20.4403 2.20918 20.3117 2.14986 20.1694C2.09054 20.0272 2.06084 19.8744 2.06257 19.7202V9.38117C2.06241 9.2038 2.1308 9.03323 2.25346 8.90511C2.37611 8.77699 2.54353 8.70215 2.72074 8.69458Z" fill="#162353"/>
</svg>
