<svg width="16" height="16" viewBox="0 0 16 16" fill="none" xmlns="http://www.w3.org/2000/svg">
<path d="M0.5 9.89999C0.632608 9.89999 0.759785 9.95267 0.853553 10.0464C0.947322 10.1402 1 10.2674 1 10.4V12.9C1 13.1652 1.10536 13.4196 1.29289 13.6071C1.48043 13.7946 1.73478 13.9 2 13.9H14C14.2652 13.9 14.5196 13.7946 14.7071 13.6071C14.8946 13.4196 15 13.1652 15 12.9V10.4C15 10.2674 15.0527 10.1402 15.1464 10.0464C15.2402 9.95267 15.3674 9.89999 15.5 9.89999C15.6326 9.89999 15.7598 9.95267 15.8536 10.0464C15.9473 10.1402 16 10.2674 16 10.4V12.9C16 13.4304 15.7893 13.9391 15.4142 14.3142C15.0391 14.6893 14.5304 14.9 14 14.9H2C1.46957 14.9 0.960859 14.6893 0.585786 14.3142C0.210714 13.9391 0 13.4304 0 12.9V10.4C0 10.2674 0.0526784 10.1402 0.146447 10.0464C0.240215 9.95267 0.367392 9.89999 0.5 9.89999Z" fill="#3A3A3A"/>
<path d="M7.6459 1.14599C7.69234 1.09943 7.74752 1.06249 7.80827 1.03728C7.86901 1.01207 7.93413 0.9991 7.9999 0.9991C8.06567 0.9991 8.13079 1.01207 8.19153 1.03728C8.25228 1.06249 8.30745 1.09943 8.3539 1.14599L11.3539 4.14599C11.4478 4.23988 11.5005 4.36722 11.5005 4.49999C11.5005 4.63277 11.4478 4.76011 11.3539 4.85399C11.26 4.94788 11.1327 5.00063 10.9999 5.00063C10.8671 5.00063 10.7398 4.94788 10.6459 4.85399L8.4999 2.70699V11.5C8.4999 11.6326 8.44722 11.7598 8.35345 11.8535C8.25969 11.9473 8.13251 12 7.9999 12C7.86729 12 7.74011 11.9473 7.64635 11.8535C7.55258 11.7598 7.4999 11.6326 7.4999 11.5V2.70699L5.3539 4.85399C5.30741 4.90048 5.25222 4.93736 5.19148 4.96252C5.13074 4.98768 5.06564 5.00063 4.9999 5.00063C4.93416 5.00063 4.86906 4.98768 4.80832 4.96252C4.74758 4.93736 4.69239 4.90048 4.6459 4.85399C4.59941 4.80751 4.56254 4.75232 4.53738 4.69158C4.51222 4.63084 4.49927 4.56574 4.49927 4.49999C4.49927 4.43425 4.51222 4.36915 4.53738 4.30841C4.56254 4.24767 4.59941 4.19248 4.6459 4.14599L7.6459 1.14599Z" fill="#3A3A3A"/>
</svg>
