<svg width="30" height="30" viewBox="0 0 30 30" fill="none" xmlns="http://www.w3.org/2000/svg">
<g clip-path="url(#clip0_11_111)">
<path d="M17.5 10H5.83333C5.61232 10 5.40036 9.9122 5.24408 9.75592C5.0878 9.59964 5 9.38768 5 9.16667V5.83333C5 5.61232 5.0878 5.40036 5.24408 5.24408C5.40036 5.0878 5.61232 5 5.83333 5H17.5C17.721 5 17.933 5.0878 18.0893 5.24408C18.2455 5.40036 18.3333 5.61232 18.3333 5.83333V9.16667C18.3333 9.38768 18.2455 9.59964 18.0893 9.75592C17.933 9.9122 17.721 10 17.5 10ZM6.66667 8.33333H16.6667V6.61667H6.66667V8.33333Z" fill="#4B4B4B"/>
<path d="M17.5 11.7333H5.83333C5.61232 11.7333 5.40036 11.8211 5.24408 11.9774C5.0878 12.1337 5 12.3457 5 12.5667V15.8333C5 16.0544 5.0878 16.2663 5.24408 16.4226C5.40036 16.5789 5.61232 16.6667 5.83333 16.6667H15.3L18.3333 13.5833V12.5667C18.3333 12.3457 18.2455 12.1337 18.0893 11.9774C17.933 11.8211 17.721 11.7333 17.5 11.7333ZM16.6667 15H6.66667V13.3333H16.6667V15Z" fill="#4B4B4B"/>
<path d="M9.21663 26.2583V26.2083L9.48329 25.05H3.33329V3.33332H20V11.875L21.6666 10.3V2.49999C21.6666 2.27898 21.5788 2.06701 21.4225 1.91073C21.2663 1.75445 21.0543 1.66666 20.8333 1.66666H2.49996C2.27895 1.66666 2.06698 1.75445 1.9107 1.91073C1.75442 2.06701 1.66663 2.27898 1.66663 2.49999V25.8333C1.66663 26.0543 1.75442 26.2663 1.9107 26.4226C2.06698 26.5789 2.27895 26.6667 2.49996 26.6667H9.16663C9.17349 26.5295 9.1902 26.3931 9.21663 26.2583Z" fill="#4B4B4B"/>
<path d="M18.3334 15.975L17.6833 16.6333C17.8446 16.6001 17.9924 16.5198 18.1081 16.4027C18.2238 16.2855 18.3022 16.1367 18.3334 15.975Z" fill="#4B4B4B"/>
<path d="M5 22.45C5 22.671 5.0878 22.883 5.24408 23.0393C5.40036 23.1955 5.61232 23.2833 5.83333 23.2833H9.86667L10.1167 22.2L10.225 21.7417V21.7H6.66667V20H11.95L13.6167 18.3333H5.83333C5.61232 18.3333 5.40036 18.4211 5.24408 18.5774C5.0878 18.7337 5 18.9457 5 19.1667V22.45Z" fill="#4B4B4B"/>
<path d="M27.9083 13.8917L25.1 11.0833C24.9754 10.9583 24.8273 10.8592 24.6643 10.7915C24.5012 10.7239 24.3265 10.6891 24.15 10.6891C23.9735 10.6891 23.7987 10.7239 23.6357 10.7915C23.4727 10.8592 23.3246 10.9583 23.2 11.0833L11.775 22.575L10.8333 26.5833C10.7981 26.7562 10.7973 26.9344 10.831 27.1077C10.8647 27.2809 10.9323 27.4458 11.0298 27.5928C11.1273 27.7399 11.2529 27.8663 11.3994 27.9648C11.5459 28.0632 11.7103 28.1318 11.8833 28.1667C11.9692 28.1753 12.0558 28.1753 12.1417 28.1667C12.2438 28.1833 12.3479 28.1833 12.45 28.1667L16.4917 27.275L27.9083 15.8333C28.033 15.7094 28.132 15.562 28.1996 15.3997C28.2671 15.2374 28.3019 15.0633 28.3019 14.8875C28.3019 14.7117 28.2671 14.5376 28.1996 14.3753C28.132 14.2129 28.033 14.0656 27.9083 13.9417V13.8917ZM15.6417 25.7583L12.5917 26.4333L13.3333 23.4083L21.9 14.75L24.25 17.1L15.6417 25.7583ZM25.1917 16.1583L22.8417 13.8083L24.1667 12.5L26.5333 14.8667L25.1917 16.1583Z" fill="#4B4B4B"/>
</g>
<defs>
<clipPath id="clip0_11_111">
<rect width="30" height="30" fill="white"/>
</clipPath>
</defs>
</svg>
