<svg width="28" height="28" viewBox="0 0 28 28" fill="none" xmlns="http://www.w3.org/2000/svg">
<path d="M16.5 9H4.83333C4.61232 9 4.40036 8.9122 4.24408 8.75592C4.0878 8.59964 4 8.38768 4 8.16667V4.83333C4 4.61232 4.0878 4.40036 4.24408 4.24408C4.40036 4.0878 4.61232 4 4.83333 4H16.5C16.721 4 16.933 4.0878 17.0893 4.24408C17.2455 4.40036 17.3333 4.61232 17.3333 4.83333V8.16667C17.3333 8.38768 17.2455 8.59964 17.0893 8.75592C16.933 8.9122 16.721 9 16.5 9ZM5.66667 7.33333H15.6667V5.61667H5.66667V7.33333Z" fill="#4B4B4B"/>
<path d="M16.5 10.7333H4.83333C4.61232 10.7333 4.40036 10.8211 4.24408 10.9774C4.0878 11.1337 4 11.3457 4 11.5667V14.8333C4 15.0544 4.0878 15.2663 4.24408 15.4226C4.40036 15.5789 4.61232 15.6667 4.83333 15.6667H14.3L17.3333 12.5833V11.5667C17.3333 11.3457 17.2455 11.1337 17.0893 10.9774C16.933 10.8211 16.721 10.7333 16.5 10.7333ZM15.6667 14H5.66667V12.3333H15.6667V14Z" fill="#4B4B4B"/>
<path d="M8.21663 25.2583V25.2083L8.48329 24.05H2.33329V2.33332H19V10.875L20.6666 9.29999V1.49999C20.6666 1.27898 20.5788 1.06701 20.4225 0.910734C20.2663 0.754454 20.0543 0.666656 19.8333 0.666656H1.49996C1.27895 0.666656 1.06698 0.754454 0.910704 0.910734C0.754423 1.06701 0.666626 1.27898 0.666626 1.49999V24.8333C0.666626 25.0543 0.754423 25.2663 0.910704 25.4226C1.06698 25.5789 1.27895 25.6667 1.49996 25.6667H8.16663C8.17349 25.5295 8.1902 25.3931 8.21663 25.2583Z" fill="#4B4B4B"/>
<path d="M4 21.45C4 21.671 4.0878 21.883 4.24408 22.0393C4.40036 22.1955 4.61232 22.2833 4.83333 22.2833H8.86667L9.11667 21.2L9.225 20.7417V20.7H5.66667V19H10.95L12.6167 17.3333H4.83333C4.61232 17.3333 4.40036 17.4211 4.24408 17.5774C4.0878 17.7337 4 17.9457 4 18.1667V21.45Z" fill="#4B4B4B"/>
<path d="M26.9083 12.8917L24.1 10.0833C23.9754 9.95835 23.8273 9.85919 23.6643 9.79154C23.5012 9.72388 23.3265 9.68906 23.15 9.68906C22.9735 9.68906 22.7987 9.72388 22.6357 9.79154C22.4727 9.85919 22.3246 9.95835 22.2 10.0833L10.775 21.575L9.83332 25.5833C9.79806 25.7562 9.79727 25.9344 9.83099 26.1077C9.8647 26.2809 9.93226 26.4458 10.0298 26.5928C10.1273 26.7399 10.2529 26.8663 10.3994 26.9648C10.5459 27.0632 10.7103 27.1318 10.8833 27.1667C10.9692 27.1753 11.0558 27.1753 11.1417 27.1667C11.2438 27.1833 11.3479 27.1833 11.45 27.1667L15.4917 26.275L26.9083 14.8333C27.033 14.7094 27.132 14.562 27.1996 14.3997C27.2671 14.2374 27.3019 14.0633 27.3019 13.8875C27.3019 13.7117 27.2671 13.5376 27.1996 13.3753C27.132 13.2129 27.033 13.0656 26.9083 12.9417V12.8917ZM14.6417 24.7583L11.5917 25.4333L12.3333 22.4083L20.9 13.75L23.25 16.1L14.6417 24.7583ZM24.1917 15.1583L21.8417 12.8083L23.1667 11.5L25.5333 13.8667L24.1917 15.1583Z" fill="#4B4B4B"/>
</svg>
