<svg width="22" height="22" viewBox="0 0 22 22" fill="none" xmlns="http://www.w3.org/2000/svg">
<path d="M11 0.333333C8.89038 0.333333 6.82809 0.958922 5.07396 2.13099C3.31984 3.30306 1.95267 4.96896 1.14533 6.91804C0.337996 8.86712 0.12676 11.0118 0.538336 13.081C0.949912 15.1501 1.96581 17.0507 3.45757 18.5425C4.94933 20.0342 6.84995 21.0501 8.91908 21.4617C10.9882 21.8733 13.1329 21.6621 15.082 20.8547C17.0311 20.0474 18.697 18.6802 19.8691 16.9261C21.0411 15.172 21.6667 13.1097 21.6667 11C21.6667 8.17102 20.5429 5.45792 18.5425 3.45753C16.5421 1.45714 13.829 0.333333 11 0.333333ZM11 20.3333C9.15409 20.3333 7.34958 19.7859 5.81472 18.7604C4.27986 17.7348 3.08359 16.2772 2.37717 14.5717C1.67075 12.8663 1.48592 10.9896 1.84605 9.17916C2.20618 7.36867 3.09509 5.70563 4.40038 4.40034C5.70567 3.09505 7.36871 2.20613 9.1792 1.846C10.9897 1.48588 12.8663 1.67071 14.5718 2.37712C16.2772 3.08354 17.7349 4.27982 18.7604 5.81468C19.786 7.34954 20.3334 9.15404 20.3334 11C20.3334 13.4754 19.35 15.8493 17.5997 17.5997C15.8494 19.35 13.4754 20.3333 11 20.3333Z" fill="#4B4B4B"/>
<path d="M11.1933 4.94667C10.4709 4.93473 9.75466 5.08205 9.0956 5.37817C8.43653 5.67429 7.85078 6.11193 7.37996 6.66C7.31455 6.72062 7.26197 6.79374 7.22532 6.87505C7.18868 6.95635 7.16872 7.04418 7.16663 7.13333C7.16658 7.21559 7.18308 7.29701 7.21515 7.37276C7.24722 7.44851 7.29419 7.51703 7.35328 7.57425C7.41237 7.63148 7.48236 7.67623 7.5591 7.70585C7.63584 7.73547 7.71775 7.74935 7.79996 7.74667C7.97608 7.7423 8.14448 7.67352 8.27329 7.55333C8.6296 7.13579 9.07214 6.80039 9.57046 6.57022C10.0688 6.34005 10.6111 6.22057 11.16 6.22C12.7333 6.22 13.7133 7.23333 13.7133 8.49333V8.52667C13.7133 10 12.54 10.82 10.6866 10.96C10.6116 10.9629 10.538 10.9816 10.4707 11.0149C10.4034 11.0482 10.3438 11.0954 10.296 11.1533C10.2482 11.2112 10.2131 11.2785 10.1931 11.3509C10.1731 11.4233 10.1686 11.4991 10.18 11.5733C10.18 11.5733 10.18 13.12 10.18 13.4067C10.1965 13.5717 10.274 13.7246 10.3973 13.8355C10.5206 13.9465 10.6808 14.0075 10.8466 14.0067H10.92C11.085 13.9901 11.2379 13.9126 11.3488 13.7893C11.4598 13.666 11.5208 13.5058 11.52 13.34V11.9667C13.52 11.6867 15.14 10.6333 15.14 8.44667V8.41333C15.12 6.41333 13.56 4.94667 11.1933 4.94667Z" fill="#4B4B4B"/>
</svg>
