<svg width="72" height="67" viewBox="0 0 72 67" fill="none" xmlns="http://www.w3.org/2000/svg">
<rect x="0.5" y="0.5" width="71" height="66" rx="5.5" fill="white" stroke="#B7B7B7" stroke-dasharray="2 2"/>
<path d="M44.9375 24.4688H27.0625C26.7393 24.4688 26.4293 24.5972 26.2007 24.8257C25.9722 25.0543 25.8438 25.3643 25.8438 25.6875V40.3125C25.8438 40.6357 25.9722 40.9457 26.2007 41.1743C26.4293 41.4028 26.7393 41.5312 27.0625 41.5312H44.9375C45.2607 41.5312 45.5707 41.4028 45.7993 41.1743C46.0278 40.9457 46.1562 40.6357 46.1562 40.3125V25.6875C46.1562 25.3643 46.0278 25.0543 45.7993 24.8257C45.5707 24.5972 45.2607 24.4688 44.9375 24.4688ZM27.0625 25.2812H44.9375C45.0452 25.2812 45.1486 25.3241 45.2248 25.4002C45.3009 25.4764 45.3438 25.5798 45.3438 25.6875V37.1031L42.0034 33.7627C41.8901 33.6491 41.7556 33.559 41.6075 33.4975C41.4593 33.4359 41.3005 33.4043 41.1401 33.4043C40.9797 33.4043 40.8208 33.4359 40.6727 33.4975C40.5246 33.559 40.39 33.6491 40.2768 33.7627L37.9581 36.0814L33.203 31.3252C33.0897 31.2116 32.9552 31.1215 32.8071 31.06C32.6589 30.9984 32.5001 30.9668 32.3397 30.9668C32.1793 30.9668 32.0205 30.9984 31.8723 31.06C31.7242 31.1215 31.5896 31.2116 31.4764 31.3252L26.6562 36.1484V25.6875C26.6562 25.5798 26.6991 25.4764 26.7752 25.4002C26.8514 25.3241 26.9548 25.2812 27.0625 25.2812ZM26.6562 40.3125V37.3002L32.0563 31.9001C32.0941 31.8623 32.1389 31.8323 32.1882 31.8119C32.2375 31.7915 32.2904 31.7809 32.3438 31.7809C32.3971 31.7809 32.45 31.7915 32.4993 31.8119C32.5486 31.8323 32.5934 31.8623 32.6312 31.9001L41.4498 40.7188H27.0625C26.9548 40.7188 26.8514 40.6759 26.7752 40.5998C26.6991 40.5236 26.6562 40.4202 26.6562 40.3125ZM44.9375 40.7188H42.6016L38.5391 36.6562L40.8577 34.3376C40.8955 34.2998 40.9403 34.2698 40.9896 34.2494C41.0389 34.229 41.0918 34.2184 41.1452 34.2184C41.1985 34.2184 41.2514 34.229 41.3007 34.2494C41.35 34.2698 41.3948 34.2998 41.4326 34.3376L45.3438 38.2518V40.3125C45.3438 40.4202 45.3009 40.5236 45.2248 40.5998C45.1486 40.6759 45.0452 40.7188 44.9375 40.7188ZM38.0312 30.1562C38.0312 29.9956 38.0789 29.8385 38.1682 29.7048C38.2575 29.5712 38.3844 29.4671 38.5328 29.4056C38.6813 29.3441 38.8447 29.328 39.0023 29.3594C39.1599 29.3907 39.3046 29.4681 39.4183 29.5817C39.5319 29.6954 39.6093 29.8401 39.6406 29.9977C39.672 30.1553 39.6559 30.3187 39.5944 30.4672C39.5329 30.6156 39.4288 30.7425 39.2952 30.8318C39.1615 30.9211 39.0044 30.9688 38.8438 30.9688C38.6283 30.9688 38.4216 30.8831 38.2692 30.7308C38.1169 30.5784 38.0312 30.3717 38.0312 30.1562Z" fill="#373737"/>
</svg>
