<svg width="22" height="18" viewBox="0 0 22 18" fill="none" xmlns="http://www.w3.org/2000/svg">
<path d="M19.9375 0.46875H2.0625C1.73927 0.46875 1.42927 0.597153 1.20071 0.825713C0.972154 1.05427 0.84375 1.36427 0.84375 1.6875V16.3125C0.84375 16.6357 0.972154 16.9457 1.20071 17.1743C1.42927 17.4028 1.73927 17.5312 2.0625 17.5312H19.9375C20.2607 17.5312 20.5707 17.4028 20.7993 17.1743C21.0278 16.9457 21.1562 16.6357 21.1562 16.3125V1.6875C21.1562 1.36427 21.0278 1.05427 20.7993 0.825713C20.5707 0.597153 20.2607 0.46875 19.9375 0.46875ZM2.0625 1.28125H19.9375C20.0452 1.28125 20.1486 1.32405 20.2248 1.40024C20.3009 1.47642 20.3438 1.57976 20.3438 1.6875V13.1031L17.0034 9.76273C16.8901 9.64911 16.7556 9.55896 16.6075 9.49745C16.4593 9.43594 16.3005 9.40427 16.1401 9.40427C15.9797 9.40427 15.8208 9.43594 15.6727 9.49745C15.5246 9.55896 15.39 9.64911 15.2768 9.76273L12.9581 12.0814L8.20297 7.32523C8.08974 7.21161 7.9552 7.12146 7.80706 7.05995C7.65892 6.99844 7.50009 6.96677 7.33969 6.96677C7.17928 6.96677 7.02046 6.99844 6.87231 7.05995C6.72417 7.12146 6.58963 7.21161 6.47641 7.32523L1.65625 12.1484V1.6875C1.65625 1.57976 1.69905 1.47642 1.77524 1.40024C1.85142 1.32405 1.95476 1.28125 2.0625 1.28125ZM1.65625 16.3125V13.3002L7.05633 7.90008C7.09406 7.86231 7.13886 7.83234 7.18818 7.8119C7.2375 7.79145 7.29036 7.78093 7.34375 7.78093C7.39714 7.78093 7.45 7.79145 7.49932 7.8119C7.54864 7.83234 7.59344 7.86231 7.63117 7.90008L16.4498 16.7188H2.0625C1.95476 16.7188 1.85142 16.6759 1.77524 16.5998C1.69905 16.5236 1.65625 16.4202 1.65625 16.3125ZM19.9375 16.7188H17.6016L13.5391 12.6562L15.8577 10.3376C15.8955 10.2998 15.9403 10.2698 15.9896 10.2494C16.0389 10.229 16.0918 10.2184 16.1452 10.2184C16.1985 10.2184 16.2514 10.229 16.3007 10.2494C16.35 10.2698 16.3948 10.2998 16.4326 10.3376L20.3438 14.2518V16.3125C20.3438 16.4202 20.3009 16.5236 20.2248 16.5998C20.1486 16.6759 20.0452 16.7188 19.9375 16.7188ZM13.0312 6.15625C13.0312 5.99555 13.0789 5.83846 13.1682 5.70485C13.2575 5.57123 13.3844 5.46709 13.5328 5.4056C13.6813 5.3441 13.8447 5.32801 14.0023 5.35936C14.1599 5.39071 14.3046 5.4681 14.4183 5.58173C14.5319 5.69536 14.6093 5.84013 14.6406 5.99774C14.672 6.15535 14.6559 6.31872 14.5944 6.46718C14.5329 6.61565 14.4288 6.74254 14.2952 6.83182C14.1615 6.9211 14.0044 6.96875 13.8438 6.96875C13.6283 6.96875 13.4216 6.88315 13.2692 6.73077C13.1169 6.5784 13.0312 6.37174 13.0312 6.15625Z" fill="#373737"/>
</svg>
