<svg width="30" height="30" viewBox="0 0 30 30" fill="none" xmlns="http://www.w3.org/2000/svg">
<path d="M20.7385 9.26156C20.211 8.7343 19.4958 8.4381 18.75 8.4381C18.0042 8.4381 17.289 8.7343 16.7616 9.26156L16.3256 9.69656L17.6513 11.0222L18.0872 10.5872C18.264 10.4164 18.5008 10.3219 18.7466 10.3241C18.9925 10.3262 19.2276 10.4248 19.4014 10.5986C19.5752 10.7724 19.6738 11.0076 19.676 11.2534C19.6781 11.4992 19.5836 11.736 19.4128 11.9128L16.3256 15L17.6513 16.3256L20.7385 13.2384C21.2657 12.711 21.5619 11.9958 21.5619 11.25C21.5619 10.5042 21.2657 9.78899 20.7385 9.26156ZM11.9128 19.4128C11.736 19.5836 11.4992 19.6781 11.2534 19.6759C11.0076 19.6738 10.7724 19.5752 10.5986 19.4014C10.4248 19.2276 10.3262 18.9924 10.3241 18.7466C10.3219 18.5008 10.4164 18.264 10.5872 18.0872L13.6744 15L12.3488 13.6744L9.26158 16.7616C8.99295 17.021 8.77869 17.3314 8.63129 17.6745C8.48389 18.0176 8.40631 18.3867 8.40306 18.7601C8.39982 19.1336 8.47098 19.5039 8.61239 19.8496C8.75381 20.1952 8.96264 20.5092 9.22672 20.7733C9.49079 21.0374 9.80481 21.2462 10.1505 21.3876C10.4961 21.529 10.8665 21.6002 11.2399 21.597C11.6133 21.5937 11.9824 21.5161 12.3255 21.3687C12.6687 21.2213 12.979 21.0071 13.2385 20.7384L13.6744 20.3034L12.3488 18.9778L11.9128 19.4128ZM13.2385 9.2625C12.7059 8.7626 11.9997 8.48951 11.2693 8.50103C10.5389 8.51254 9.84171 8.80776 9.32514 9.3242C8.80857 9.84065 8.51319 10.5378 8.5015 11.2682C8.48982 11.9985 8.76274 12.7048 9.26252 13.2375L9.69751 13.6734L11.0231 12.3478L10.5881 11.9119C10.4174 11.7351 10.3229 11.4982 10.325 11.2524C10.3271 11.0066 10.4257 10.7715 10.5996 10.5977C10.7734 10.4239 11.0085 10.3253 11.2543 10.3231C11.5001 10.321 11.737 10.4155 11.9138 10.5863L15 13.6744L16.3256 12.3488L13.2385 9.2625Z" fill="#4B4B4B"/>
<path d="M20.7384 16.7616L20.3034 16.3256L18.9778 17.6512L19.4128 18.0872C19.5835 18.264 19.678 18.5008 19.6759 18.7466C19.6737 18.9924 19.5752 19.2276 19.4013 19.4014C19.2275 19.5752 18.9924 19.6738 18.7466 19.6759C18.5008 19.6781 18.2639 19.5836 18.0871 19.4128L14.9999 16.3256L13.6743 17.6512L16.7615 20.7384C17.2919 21.2508 18.0024 21.5342 18.7398 21.5278C19.4772 21.5214 20.1827 21.2256 20.7041 20.7042C21.2256 20.1827 21.5214 19.4773 21.5278 18.7399C21.5342 18.0024 21.2507 17.292 20.7384 16.7616Z" fill="#4B4B4B"/>
<path d="M15 29.0625C14.834 29.0626 14.6709 29.0186 14.5275 28.935L3.2775 22.3725C3.13596 22.2899 3.01854 22.1717 2.93695 22.0295C2.85536 21.8874 2.81245 21.7264 2.8125 21.5625V8.4375C2.81245 8.27363 2.85536 8.1126 2.93695 7.97047C3.01854 7.82835 3.13596 7.7101 3.2775 7.6275L14.5275 1.065C14.6709 0.981321 14.834 0.937225 15 0.937225C15.166 0.937225 15.3291 0.981321 15.4725 1.065L26.7225 7.6275L25.7775 9.2475L15 2.96063L4.6875 8.97563V21.0244L15 27.0403L25.3125 21.0244V14.0625H27.1875V21.5625C27.1875 21.7264 27.1446 21.8874 27.063 22.0295C26.9815 22.1717 26.864 22.2899 26.7225 22.3725L15.4725 28.935C15.3291 29.0186 15.166 29.0626 15 29.0625Z" fill="#4B4B4B"/>
</svg>
