<svg width="24" height="24" viewBox="0 0 24 24" fill="none" xmlns="http://www.w3.org/2000/svg">
<path d="M0.328125 11.625C0.477309 11.7369 0.664831 11.7849 0.849437 11.7586C1.03404 11.7322 1.20061 11.6336 1.3125 11.4844C1.90195 10.6984 2.66628 10.0605 3.54498 9.6212C4.42367 9.18185 5.39259 8.95312 6.375 8.95312C7.35741 8.95312 8.32633 9.18185 9.20502 9.6212C10.0837 10.0605 10.8481 10.6984 11.4375 11.4844C11.5496 11.6334 11.7162 11.7318 11.9008 11.7579C12.0854 11.7841 12.2728 11.7358 12.4219 11.6238C12.4751 11.5846 12.5221 11.5376 12.5613 11.4844C13.1508 10.6984 13.9151 10.0605 14.7938 9.6212C15.6725 9.18185 16.6414 8.95312 17.6238 8.95312C18.6062 8.95312 19.5752 9.18185 20.4539 9.6212C21.3325 10.0605 22.0969 10.6984 22.6863 11.4844C22.7984 11.6336 22.9651 11.7321 23.1498 11.7584C23.3345 11.7846 23.5221 11.7365 23.6713 11.6244C23.8205 11.5124 23.919 11.3457 23.9453 11.1609C23.9716 10.9762 23.9234 10.7886 23.8113 10.6395C22.9261 9.45385 21.7182 8.54823 20.332 8.03086C21.0709 7.46482 21.6138 6.68151 21.8845 5.791C22.1552 4.90049 22.14 3.94755 21.8412 3.06609C21.5423 2.18463 20.9748 1.41896 20.2184 0.876681C19.4619 0.334401 18.5546 0.0427704 17.6238 0.0427704C16.6931 0.0427704 15.7857 0.334401 15.0293 0.876681C14.2728 1.41896 13.7053 2.18463 13.4065 3.06609C13.1076 3.94755 13.0925 4.90049 13.3632 5.791C13.6339 6.68151 14.1768 7.46482 14.9156 8.03086C13.8067 8.44405 12.8087 9.10872 12 9.97265C11.191 9.10857 10.1925 8.44389 9.0832 8.03086C9.82204 7.46482 10.365 6.68151 10.6356 5.791C10.9063 4.90049 10.8912 3.94755 10.5923 3.06609C10.2935 2.18463 9.72598 1.41896 8.96953 0.876681C8.21309 0.334401 7.30574 0.0427704 6.375 0.0427704C5.44426 0.0427704 4.53691 0.334401 3.78047 0.876681C3.02402 1.41896 2.4565 2.18463 2.15766 3.06609C1.85882 3.94755 1.84368 4.90049 2.11436 5.791C2.38505 6.68151 2.92796 7.46482 3.6668 8.03086C2.28029 8.54826 1.0723 9.45435 0.1875 10.6406C0.132099 10.7145 0.0917892 10.7986 0.0688732 10.888C0.0459572 10.9774 0.0408835 11.0705 0.0539418 11.1619C0.067 11.2533 0.0979344 11.3413 0.144979 11.4207C0.192023 11.5002 0.254256 11.5696 0.328125 11.625ZM17.625 1.45312C18.2276 1.45312 18.8167 1.63182 19.3178 1.96661C19.8188 2.30141 20.2093 2.77727 20.4399 3.33401C20.6706 3.89075 20.7309 4.50338 20.6133 5.09441C20.4958 5.68545 20.2056 6.22835 19.7795 6.65446C19.3534 7.08058 18.8105 7.37076 18.2194 7.48833C17.6284 7.60589 17.0158 7.54555 16.459 7.31494C15.9023 7.08433 15.4264 6.69381 15.0916 6.19275C14.7568 5.6917 14.5781 5.10261 14.5781 4.5C14.5781 3.69192 14.8991 2.91693 15.4705 2.34553C16.0419 1.77413 16.8169 1.45312 17.625 1.45312ZM6.375 1.45312C6.97762 1.45312 7.5667 1.63182 8.06775 1.96661C8.56881 2.30141 8.95934 2.77727 9.18995 3.33401C9.42056 3.89075 9.4809 4.50338 9.36333 5.09441C9.24577 5.68545 8.95558 6.22835 8.52947 6.65446C8.10335 7.08058 7.56045 7.37076 6.96942 7.48833C6.37838 7.60589 5.76576 7.54555 5.20901 7.31494C4.65227 7.08433 4.17641 6.69381 3.84162 6.19275C3.50682 5.6917 3.32813 5.10261 3.32813 4.5C3.32813 3.69192 3.64913 2.91693 4.22053 2.34553C4.79193 1.77413 5.56692 1.45312 6.375 1.45312ZM20.3332 20.2184C21.072 19.6523 21.615 18.869 21.8856 17.9785C22.1563 17.088 22.1412 16.135 21.8423 15.2536C21.5435 14.3721 20.976 13.6065 20.2195 13.0642C19.4631 12.5219 18.5557 12.2303 17.625 12.2303C16.6943 12.2303 15.7869 12.5219 15.0305 13.0642C14.274 13.6065 13.7065 14.3721 13.4077 15.2536C13.1088 16.135 13.0937 17.088 13.3644 17.9785C13.6351 18.869 14.178 19.6523 14.9168 20.2184C13.8075 20.6314 12.809 21.2961 12 22.1602C11.191 21.2961 10.1925 20.6314 9.0832 20.2184C9.82204 19.6523 10.365 18.869 10.6356 17.9785C10.9063 17.088 10.8912 16.135 10.5923 15.2536C10.2935 14.3721 9.72598 13.6065 8.96953 13.0642C8.21309 12.5219 7.30574 12.2303 6.375 12.2303C5.44426 12.2303 4.53691 12.5219 3.78047 13.0642C3.02402 13.6065 2.4565 14.3721 2.15766 15.2536C1.85882 16.135 1.84368 17.088 2.11436 17.9785C2.38505 18.869 2.92796 19.6523 3.6668 20.2184C2.28029 20.7358 1.0723 21.6418 0.1875 22.8281C0.132099 22.902 0.0917892 22.9861 0.0688732 23.0755C0.0459572 23.1649 0.0408836 23.258 0.0539418 23.3494C0.067 23.4408 0.0979344 23.5288 0.144979 23.6082C0.192023 23.6877 0.254256 23.7571 0.328125 23.8125C0.401994 23.8679 0.486051 23.9082 0.575498 23.9311C0.664945 23.954 0.75803 23.9591 0.849437 23.9461C0.940845 23.933 1.02879 23.9021 1.10824 23.855C1.18769 23.808 1.2571 23.7457 1.3125 23.6719C1.90195 22.8859 2.66628 22.248 3.54498 21.8087C4.42367 21.3694 5.39259 21.1406 6.375 21.1406C7.35741 21.1406 8.32633 21.3694 9.20502 21.8087C10.0837 22.248 10.8481 22.8859 11.4375 23.6719C11.5496 23.8209 11.7162 23.9193 11.9008 23.9454C12.0854 23.9716 12.2728 23.9233 12.4219 23.8113C12.4751 23.7721 12.5221 23.7251 12.5613 23.6719C13.1508 22.8859 13.9151 22.248 14.7938 21.8087C15.6725 21.3694 16.6414 21.1406 17.6238 21.1406C18.6062 21.1406 19.5752 21.3694 20.4539 21.8087C21.3325 22.248 22.0969 22.8859 22.6863 23.6719C22.7984 23.8211 22.9651 23.9196 23.1498 23.9459C23.3345 23.9721 23.5221 23.924 23.6713 23.8119C23.8205 23.6999 23.919 23.5332 23.9453 23.3484C23.9716 23.1637 23.9234 22.9761 23.8113 22.827C22.9264 21.6415 21.719 20.7359 20.3332 20.2184ZM6.375 13.6406C6.97762 13.6406 7.5667 13.8193 8.06775 14.1541C8.56881 14.4889 8.95934 14.9648 9.18995 15.5215C9.42056 16.0783 9.4809 16.6909 9.36333 17.2819C9.24577 17.873 8.95558 18.4159 8.52947 18.842C8.10335 19.2681 7.56045 19.5583 6.96942 19.6758C6.37838 19.7934 5.76576 19.7331 5.20901 19.5024C4.65227 19.2718 4.17641 18.8813 3.84162 18.3803C3.50682 17.8792 3.32813 17.2901 3.32813 16.6875C3.32813 15.8794 3.64913 15.1044 4.22053 14.533C4.79193 13.9616 5.56692 13.6406 6.375 13.6406ZM17.625 13.6406C18.2276 13.6406 18.8167 13.8193 19.3178 14.1541C19.8188 14.4889 20.2093 14.9648 20.4399 15.5215C20.6706 16.0783 20.7309 16.6909 20.6133 17.2819C20.4958 17.873 20.2056 18.4159 19.7795 18.842C19.3534 19.2681 18.8105 19.5583 18.2194 19.6758C17.6284 19.7934 17.0158 19.7331 16.459 19.5024C15.9023 19.2718 15.4264 18.8813 15.0916 18.3803C14.7568 17.8792 14.5781 17.2901 14.5781 16.6875C14.5781 15.8794 14.8991 15.1044 15.4705 14.533C16.0419 13.9616 16.8169 13.6406 17.625 13.6406Z" fill="#4B4B4B"/>
</svg>
