<svg width="21" height="21" viewBox="0 0 21 21" fill="none" xmlns="http://www.w3.org/2000/svg">
<path d="M18.375 14.3675V17.4615C18.3751 17.683 18.2912 17.8964 18.1401 18.0584C17.9891 18.2205 17.7822 18.3192 17.5612 18.3348C17.1789 18.361 16.8665 18.375 16.625 18.375C8.89262 18.375 2.625 12.1074 2.625 4.375C2.625 4.1335 2.63813 3.82113 2.66525 3.43875C2.68076 3.21776 2.77951 3.01088 2.94158 2.85986C3.10365 2.70883 3.31697 2.6249 3.5385 2.625H6.6325C6.74103 2.62489 6.84573 2.66513 6.92626 2.73789C7.00679 2.81066 7.0574 2.91076 7.06825 3.01875C7.08838 3.22 7.10675 3.38013 7.12425 3.50175C7.29814 4.71531 7.6545 5.8956 8.18125 7.00263C8.26438 7.17763 8.21012 7.38675 8.05263 7.49875L6.16438 8.848C7.3189 11.5381 9.46273 13.682 12.1529 14.8365L13.5004 12.9517C13.5555 12.8747 13.6358 12.8195 13.7274 12.7957C13.8191 12.7719 13.9161 12.781 14.0018 12.8214C15.1086 13.3472 16.2886 13.7027 17.5018 13.8757C17.6234 13.8932 17.7835 13.9116 17.983 13.9318C18.0908 13.9428 18.1907 13.9935 18.2633 14.074C18.3359 14.1545 18.3751 14.2591 18.375 14.3675Z" fill="#3A3A3A"/>
</svg>
