<svg width="22" height="22" viewBox="0 0 22 22" fill="none" xmlns="http://www.w3.org/2000/svg">
<path d="M11.0001 3.66667C9.05516 3.66667 7.1899 4.43929 5.81463 5.81456C4.43936 7.18982 3.66675 9.05508 3.66675 11C3.66675 12.9449 4.43936 14.8102 5.81463 16.1855C7.1899 17.5607 9.05516 18.3333 11.0001 18.3333C12.945 18.3333 14.8103 17.5607 16.1855 16.1855C17.5608 14.8102 18.3334 12.9449 18.3334 11C18.3334 9.05508 17.5608 7.18982 16.1855 5.81456C14.8103 4.43929 12.945 3.66667 11.0001 3.66667Z" stroke="#3A3A3A" stroke-width="2" stroke-linecap="round" stroke-linejoin="round"/>
<path d="M11 8.25C10.2707 8.25 9.57118 8.53973 9.05546 9.05546C8.53973 9.57118 8.25 10.2707 8.25 11C8.25 11.7293 8.53973 12.4288 9.05546 12.9445C9.57118 13.4603 10.2707 13.75 11 13.75C11.7293 13.75 12.4288 13.4603 12.9445 12.9445C13.4603 12.4288 13.75 11.7293 13.75 11C13.75 10.2707 13.4603 9.57118 12.9445 9.05546C12.4288 8.53973 11.7293 8.25 11 8.25Z" stroke="#3A3A3A" stroke-width="2" stroke-linecap="round" stroke-linejoin="round"/>
</svg>
