<svg width="24" height="24" viewBox="0 0 24 24" fill="none" xmlns="http://www.w3.org/2000/svg">
<path d="M21.375 2.625V6.375H2.625V2.625H21.375ZM21.375 0.75H2.625C2.12772 0.75 1.65081 0.947544 1.29917 1.29917C0.947544 1.65081 0.75 2.12772 0.75 2.625V6.375C0.75 6.87228 0.947544 7.34919 1.29917 7.70082C1.65081 8.05246 2.12772 8.25 2.625 8.25H21.375C21.8723 8.25 22.3492 8.05246 22.7008 7.70082C23.0525 7.34919 23.25 6.87228 23.25 6.375V2.625C23.25 2.12772 23.0525 1.65081 22.7008 1.29917C22.3492 0.947544 21.8723 0.75 21.375 0.75ZM6.375 12V21.375H2.625V12H6.375ZM6.375 10.125H2.625C2.12772 10.125 1.65081 10.3225 1.29917 10.6742C0.947544 11.0258 0.75 11.5027 0.75 12V21.375C0.75 21.8723 0.947544 22.3492 1.29917 22.7008C1.65081 23.0525 2.12772 23.25 2.625 23.25H6.375C6.87228 23.25 7.34919 23.0525 7.70082 22.7008C8.05246 22.3492 8.25 21.8723 8.25 21.375V12C8.25 11.5027 8.05246 11.0258 7.70082 10.6742C7.34919 10.3225 6.87228 10.125 6.375 10.125ZM21.375 12V21.375H12V12H21.375ZM21.375 10.125H12C11.5027 10.125 11.0258 10.3225 10.6742 10.6742C10.3225 11.0258 10.125 11.5027 10.125 12V21.375C10.125 21.8723 10.3225 22.3492 10.6742 22.7008C11.0258 23.0525 11.5027 23.25 12 23.25H21.375C21.8723 23.25 22.3492 23.0525 22.7008 22.7008C23.0525 22.3492 23.25 21.8723 23.25 21.375V12C23.25 11.5027 23.0525 11.0258 22.7008 10.6742C22.3492 10.3225 21.8723 10.125 21.375 10.125Z" fill="#4B4B4B"/>
</svg>
