<svg width="23" height="23" viewBox="0 0 23 23" fill="none" xmlns="http://www.w3.org/2000/svg">
<path d="M19.4063 15.9146V7.08544C19.8967 6.95975 20.3452 6.70652 20.7062 6.35144C21.0671 5.99637 21.3277 5.55211 21.4614 5.06376C21.5951 4.57542 21.5972 4.06039 21.4675 3.57096C21.3378 3.08154 21.0809 2.63515 20.7229 2.27713C20.3649 1.91911 19.9185 1.6622 19.4291 1.53249C18.9396 1.40278 18.4246 1.4049 17.9363 1.53862C17.4479 1.67234 17.0037 1.9329 16.6486 2.29385C16.2935 2.6548 16.0403 3.10328 15.9146 3.59375H7.08546C6.95977 3.10328 6.70654 2.6548 6.35147 2.29385C5.99639 1.9329 5.55213 1.67234 5.06379 1.53862C4.57544 1.4049 4.06041 1.40278 3.57099 1.53249C3.08156 1.6622 2.63517 1.91911 2.27715 2.27713C1.91913 2.63515 1.66222 3.08154 1.53251 3.57096C1.40281 4.06039 1.40492 4.57542 1.53864 5.06376C1.67236 5.55211 1.93292 5.99637 2.29387 6.35144C2.65482 6.70652 3.1033 6.95975 3.59377 7.08544V15.9146C3.1033 16.0402 2.65482 16.2935 2.29387 16.6486C1.93292 17.0036 1.67236 17.4479 1.53864 17.9362C1.40492 18.4246 1.40281 18.9396 1.53251 19.429C1.66222 19.9185 1.91913 20.3648 2.27715 20.7229C2.63517 21.0809 3.08156 21.3378 3.57099 21.4675C4.06041 21.5972 4.57544 21.5951 5.06379 21.4614C5.55213 21.3277 5.99639 21.0671 6.35147 20.7062C6.70654 20.3452 6.95977 19.8967 7.08546 19.4062H15.9146C16.0403 19.8967 16.2935 20.3452 16.6486 20.7062C17.0037 21.0671 17.4479 21.3277 17.9363 21.4614C18.4246 21.5951 18.9396 21.5972 19.4291 21.4675C19.9185 21.3378 20.3649 21.0809 20.7229 20.7229C21.0809 20.3648 21.3378 19.9185 21.4675 19.429C21.5972 18.9396 21.5951 18.4246 21.4614 17.9362C21.3277 17.4479 21.0671 17.0036 20.7062 16.6486C20.3452 16.2935 19.8967 16.0402 19.4063 15.9146ZM18.6875 2.875C18.9718 2.875 19.2498 2.95931 19.4862 3.11726C19.7226 3.27522 19.9068 3.49972 20.0156 3.76239C20.1244 4.02506 20.1529 4.31409 20.0974 4.59294C20.0419 4.87179 19.905 5.12793 19.704 5.32897C19.503 5.53 19.2468 5.66691 18.968 5.72238C18.6891 5.77785 18.4001 5.74938 18.1374 5.64058C17.8747 5.53178 17.6502 5.34753 17.4923 5.11113C17.3343 4.87474 17.25 4.59681 17.25 4.3125C17.2504 3.93137 17.402 3.56596 17.6715 3.29645C17.941 3.02695 18.3064 2.87538 18.6875 2.875ZM2.87502 4.3125C2.87502 4.02819 2.95933 3.75026 3.11729 3.51387C3.27524 3.27747 3.49975 3.09322 3.76242 2.98442C4.02508 2.87562 4.31412 2.84715 4.59297 2.90262C4.87181 2.95809 5.12795 3.095 5.32899 3.29603C5.53003 3.49707 5.66694 3.75321 5.7224 4.03206C5.77787 4.31091 5.7494 4.59994 5.6406 4.86261C5.5318 5.12528 5.34755 5.34978 5.11116 5.50774C4.87476 5.66569 4.59683 5.75 4.31252 5.75C3.93139 5.74962 3.56598 5.59805 3.29648 5.32855C3.02698 5.05904 2.8754 4.69363 2.87502 4.3125ZM4.31252 20.125C4.02821 20.125 3.75029 20.0407 3.51389 19.8827C3.2775 19.7248 3.09325 19.5003 2.98445 19.2376C2.87565 18.9749 2.84718 18.6859 2.90264 18.4071C2.95811 18.1282 3.09502 17.8721 3.29606 17.671C3.49709 17.47 3.75323 17.3331 4.03208 17.2776C4.31093 17.2222 4.59996 17.2506 4.86263 17.3594C5.1253 17.4682 5.34981 17.6525 5.50776 17.8889C5.66571 18.1253 5.75002 18.4032 5.75002 18.6875C5.74964 19.0686 5.59807 19.434 5.32857 19.7035C5.05907 19.973 4.69365 20.1246 4.31252 20.125ZM15.9146 17.9688H7.08546C6.95671 17.4746 6.69848 17.0237 6.33739 16.6626C5.9763 16.3015 5.52543 16.0433 5.03127 15.9146V7.08544C5.5254 6.95662 5.97623 6.69837 6.33731 6.33729C6.69839 5.97621 6.95664 5.52538 7.08546 5.03125H15.9146C16.0433 5.52541 16.3016 5.97628 16.6627 6.33737C17.0237 6.69846 17.4746 6.95669 17.9688 7.08544V15.9146C17.4746 16.0432 17.0237 16.3015 16.6626 16.6625C16.3015 17.0236 16.0433 17.4746 15.9146 17.9688ZM18.6875 20.125C18.4032 20.125 18.1253 20.0407 17.8889 19.8827C17.6525 19.7248 17.4682 19.5003 17.3594 19.2376C17.2506 18.9749 17.2222 18.6859 17.2776 18.4071C17.3331 18.1282 17.47 17.8721 17.6711 17.671C17.8721 17.47 18.1282 17.3331 18.4071 17.2776C18.6859 17.2222 18.975 17.2506 19.2376 17.3594C19.5003 17.4682 19.7248 17.6525 19.8828 17.8889C20.0407 18.1253 20.125 18.4032 20.125 18.6875C20.1245 19.0686 19.9728 19.4339 19.7034 19.7033C19.4339 19.9728 19.0686 20.1244 18.6875 20.125Z" fill="#3A3A3A"/>
</svg>
