<svg width="18" height="18" viewBox="0 0 18 18" fill="none" xmlns="http://www.w3.org/2000/svg">
<g clip-path="url(#clip0_13_72)">
<path d="M6.09501 4.42C6.04699 4.27285 5.95313 4.14493 5.82718 4.05496C5.70122 3.965 5.54978 3.9177 5.39501 3.92H5.33501C5.17872 3.91634 5.02539 3.96294 4.89758 4.05295C4.76976 4.14296 4.67422 4.27162 4.62501 4.42L0.570006 13.28C0.523564 13.3714 0.499568 13.4725 0.500006 13.575C0.500006 13.7076 0.552684 13.8348 0.646453 13.9286C0.740221 14.0223 0.867398 14.075 1.00001 14.075C1.11929 14.0767 1.23599 14.0403 1.33313 13.971C1.43026 13.9018 1.50274 13.8033 1.54001 13.69L2.58001 11.365H8.08001L9.12001 13.66C9.161 13.7773 9.23631 13.8796 9.33617 13.9536C9.43603 14.0276 9.55582 14.0699 9.68001 14.075C9.82323 14.075 9.96058 14.0181 10.0618 13.9168C10.1631 13.8156 10.22 13.6782 10.22 13.535C10.214 13.4366 10.1903 13.34 10.15 13.25L6.09501 4.42ZM3.04001 10.355L5.33501 5.245L7.63501 10.355H3.04001Z" fill="#333333"/>
<path d="M16.1199 7.39C15.8048 7.11117 15.4375 6.89774 15.0392 6.76212C14.6409 6.6265 14.2197 6.57139 13.7999 6.6C12.9899 6.59719 12.1886 6.76767 11.4499 7.1C11.3647 7.13944 11.2922 7.2021 11.2409 7.28081C11.1897 7.35951 11.1616 7.45107 11.1599 7.545C11.1694 7.66554 11.2222 7.77857 11.3087 7.86314C11.3951 7.94772 11.5092 7.99812 11.6299 8.005C11.6967 8.00234 11.7625 7.98883 11.8249 7.965C12.4083 7.69696 13.0429 7.55878 13.6849 7.56C15.0349 7.56 15.8249 8.225 15.8249 9.52V9.77C15.1071 9.56081 14.3625 9.45805 13.6149 9.465C11.7949 9.465 10.5449 10.27 10.5449 11.785V11.81C10.5449 13.285 11.8949 14.05 13.2299 14.05C13.7299 14.0646 14.2262 13.9597 14.6775 13.744C15.1288 13.5283 15.5222 13.2082 15.8249 12.81V13.45C15.8249 13.5826 15.8776 13.7098 15.9714 13.8036C16.0651 13.8973 16.1923 13.95 16.3249 13.95C16.3932 13.9501 16.4608 13.9363 16.5235 13.9093C16.5862 13.8823 16.6427 13.8428 16.6895 13.7931C16.7364 13.7435 16.7725 13.6847 16.7958 13.6206C16.8191 13.5564 16.829 13.4881 16.8249 13.42V9.5C16.8546 9.11901 16.8075 8.73595 16.6864 8.3735C16.5653 8.01106 16.3727 7.67662 16.1199 7.39ZM15.8399 11.24C15.8399 12.38 14.7549 13.185 13.4349 13.185C12.4649 13.185 11.6299 12.655 11.6299 11.755V11.725C11.6299 10.825 12.3799 10.225 13.7299 10.225C14.4441 10.227 15.1544 10.3297 15.8399 10.53V11.24Z" fill="#333333"/>
</g>
<defs>
<clipPath id="clip0_13_72">
<rect width="18" height="18" fill="white"/>
</clipPath>
</defs>
</svg>
